<svg width="20" height="20" viewBox="0 0 20 20" fill="none" xmlns="http://www.w3.org/2000/svg">
<circle cx="10" cy="10" r="10" fill="black"/>
<path d="M9.34473 9.89111V13.1138C9.23372 13.2319 9.0708 13.3698 8.85596 13.5273C8.64469 13.6813 8.36719 13.8174 8.02344 13.9355C7.68327 14.0501 7.2679 14.1074 6.77734 14.1074C6.34408 14.1074 5.9502 14.0394 5.5957 13.9033C5.24479 13.7673 4.94222 13.5614 4.68799 13.2856C4.43734 13.0063 4.24577 12.659 4.11328 12.2437C3.98079 11.8247 3.91455 11.3288 3.91455 10.7559V9.42383C3.91455 8.85807 3.97721 8.36572 4.10254 7.94678C4.23145 7.52425 4.41764 7.17334 4.66113 6.89404C4.90462 6.61475 5.19466 6.40706 5.53125 6.271C5.87142 6.13493 6.25456 6.06689 6.68066 6.06689C7.2679 6.06689 7.74951 6.16536 8.12549 6.3623C8.50505 6.55924 8.7915 6.85107 8.98486 7.23779C9.1818 7.62451 9.29997 8.09896 9.33936 8.66113H7.81934C7.79427 8.33171 7.73877 8.07389 7.65283 7.8877C7.57048 7.7015 7.4541 7.56901 7.30371 7.49023C7.15332 7.40788 6.95817 7.3667 6.71826 7.3667C6.51058 7.3667 6.32975 7.4043 6.17578 7.47949C6.02181 7.55111 5.8929 7.66927 5.78906 7.83398C5.68522 7.9987 5.60824 8.20996 5.55811 8.46777C5.50798 8.72559 5.48291 9.04069 5.48291 9.41309V10.7559C5.48291 11.1247 5.51156 11.4398 5.56885 11.7012C5.62614 11.9626 5.71029 12.1756 5.82129 12.3403C5.93587 12.505 6.0791 12.625 6.25098 12.7002C6.42643 12.7718 6.63232 12.8076 6.86865 12.8076C7.05843 12.8076 7.21061 12.7879 7.3252 12.7485C7.43978 12.7091 7.53109 12.668 7.59912 12.625C7.67074 12.5785 7.72982 12.5426 7.77637 12.5176V11.0781H6.65381V9.89111H9.34473ZM14.8125 9.34863V10.6484H11.606V9.34863H14.8125ZM12.0518 6.17969V14H10.478V6.17969H12.0518ZM15.9512 6.17969V14H14.3936V6.17969H15.9512Z" fill="#E9492B"/>
</svg>
