<svg width="100" height="31" viewBox="0 0 100 31" fill="none" xmlns="http://www.w3.org/2000/svg">
<path fill-rule="evenodd" clip-rule="evenodd" d="M0 12C0 6.34315 0 3.51472 1.75736 1.75736C3.51472 0 6.34315 0 12 0H16.1818C21.8387 0 24.6671 0 26.4245 1.75736C28.1818 3.51472 28.1818 6.34315 28.1818 12V16.1818C28.1818 21.8387 28.1818 24.6671 26.4245 26.4245C24.6671 28.1818 21.8387 28.1818 16.1818 28.1818H12C6.34315 28.1818 3.51472 28.1818 1.75736 26.4245C0 24.6671 0 21.8387 0 16.1818V12ZM14.8736 6.01675C15.4071 6.15969 15.7237 6.70803 15.5807 7.2415L11.5325 22.3499C11.3895 22.8833 10.8412 23.1999 10.3077 23.057L7.75096 22.3719C7.21749 22.229 6.90091 21.6806 7.04385 21.1471L11.0921 6.03878C11.2351 5.50531 11.7834 5.18873 12.3169 5.33167L14.8736 6.01675ZM8.88943 10.034C8.93487 10.2035 8.93487 10.382 8.88943 10.5516L7.51927 15.6651C7.25447 16.6534 5.85222 16.6534 5.58742 15.6651L3.38767 7.45554C3.24473 6.92208 3.56131 6.37374 4.09478 6.2308L6.65154 5.54571C7.185 5.40277 7.73334 5.71936 7.87628 6.25282L8.88943 10.034ZM13.7472 22.3719C13.2137 22.2289 12.8971 21.6806 13.0401 21.1471L17.0883 6.03875C17.2313 5.50529 17.7796 5.18871 18.3131 5.33165L20.8699 6.01673C21.4033 6.15967 21.7199 6.70801 21.577 7.24148L17.5287 22.3498C17.3857 22.8833 16.8374 23.1999 16.3039 23.057L13.7472 22.3719ZM19.7321 18.3554C19.6867 18.1859 19.6867 18.0073 19.7321 17.8378L21.1023 12.7243C21.3671 11.736 22.7694 11.736 23.0341 12.7243L25.2337 20.9332C25.3767 21.4666 25.0601 22.015 24.5266 22.1579L21.9698 22.843C21.4364 22.9859 20.888 22.6693 20.7451 22.1359L19.7321 18.3554Z" fill="#BD93F9"/>
<path d="M38.7849 21L40.0799 16.6833L41.2885 21H45.0379L48.1952 10.5167H45.5559L43.8909 17.2013L42.6329 10.5167H38.3655L38.9452 12.6133L37.8229 17.2013L36.3305 10.5167H31.8782L35.0232 21H38.7849ZM48.8892 21H52.8606V10.5167H50.8009L48.1492 11.2443V12.564L48.8892 13.0203V21ZM50.6776 9.382H51.1462L53.2552 7.347V6.91533L51.1462 4.89267H50.6776L48.6549 6.91533V7.347L50.6776 9.382ZM60.5684 21H65.3784L62.0731 15.3637L65.3044 10.5167H60.6794L58.6568 15.9557L60.5684 21ZM54.3894 21H58.4101V4.84333H57.6084L53.6494 5.46V6.607L54.3894 7.051V21ZM71.3732 14.6237H69.4985V13.5877C69.4985 13.2917 69.5068 13.0491 69.5232 12.86C69.5479 12.6627 69.5972 12.4736 69.6712 12.2927C69.7452 12.1036 69.8603 11.9679 70.0165 11.8857C70.1728 11.7952 70.3742 11.75 70.6209 11.75C70.9086 11.75 71.106 11.9679 71.2129 12.4037C71.3198 12.8394 71.3732 13.5794 71.3732 14.6237ZM70.3865 21.259C70.8799 21.259 71.3979 21.2014 71.9405 21.0863C72.4832 20.9712 73.0464 20.7492 73.6302 20.4203C74.2222 20.0832 74.6703 19.668 74.9745 19.1747L74.2469 17.929C74.0166 18.1428 73.7289 18.3278 73.3835 18.484C73.0464 18.6402 72.7093 18.7553 72.3722 18.8293C72.0433 18.9033 71.735 18.9403 71.4472 18.9403C71.1512 18.9403 70.9004 18.9157 70.6949 18.8663C70.4893 18.817 70.2879 18.7183 70.0905 18.5703C69.8932 18.4223 69.7411 18.1921 69.6342 17.8797C69.5355 17.5672 69.4862 17.1684 69.4862 16.6833V16.449H75.1225V15.08C75.1225 13.3944 74.7731 12.1734 74.0742 11.417C73.3753 10.6523 72.216 10.27 70.5962 10.27C68.9106 10.27 67.5992 10.7428 66.6619 11.6883C65.7245 12.6339 65.2559 14.0276 65.2559 15.8693C65.2559 16.6422 65.3463 17.3452 65.5272 17.9783C65.7081 18.6032 65.9918 19.1664 66.3782 19.668C66.7729 20.1696 67.3073 20.5601 67.9815 20.8397C68.664 21.1192 69.4656 21.259 70.3865 21.259ZM81.9962 14.6237H80.1216V13.5877C80.1216 13.2917 80.1298 13.0491 80.1462 12.86C80.1709 12.6627 80.2202 12.4736 80.2942 12.2927C80.3682 12.1036 80.4834 11.9679 80.6396 11.8857C80.7958 11.7952 80.9972 11.75 81.2439 11.75C81.5317 11.75 81.729 11.9679 81.8359 12.4037C81.9428 12.8394 81.9962 13.5794 81.9962 14.6237ZM81.0096 21.259C81.5029 21.259 82.0209 21.2014 82.5636 21.0863C83.1062 20.9712 83.6695 20.7492 84.2532 20.4203C84.8452 20.0832 85.2934 19.668 85.5976 19.1747L84.8699 17.929C84.6397 18.1428 84.3519 18.3278 84.0066 18.484C83.6695 18.6402 83.3324 18.7553 82.9952 18.8293C82.6664 18.9033 82.358 18.9403 82.0702 18.9403C81.7742 18.9403 81.5235 18.9157 81.3179 18.8663C81.1124 18.817 80.9109 18.7183 80.7136 18.5703C80.5162 18.4223 80.3641 18.1921 80.2572 17.8797C80.1586 17.5672 80.1092 17.1684 80.1092 16.6833V16.449H85.7456V15.08C85.7456 13.3944 85.3961 12.1734 84.6972 11.417C83.9984 10.6523 82.839 10.27 81.2192 10.27C79.5337 10.27 78.2222 10.7428 77.2849 11.6883C76.3476 12.6339 75.8789 14.0276 75.8789 15.8693C75.8789 16.6422 75.9694 17.3452 76.1502 17.9783C76.3311 18.6032 76.6148 19.1664 77.0012 19.668C77.3959 20.1696 77.9304 20.5601 78.6046 20.8397C79.287 21.1192 80.0887 21.259 81.0096 21.259ZM93.3963 21C94.0787 21 94.6831 20.8602 95.2093 20.5807C95.7437 20.2929 96.1795 19.8982 96.5166 19.3967C96.8537 18.8951 97.1086 18.3196 97.2813 17.67C97.454 17.0122 97.5403 16.2969 97.5403 15.524C97.5403 13.8796 97.2196 12.5928 96.5783 11.6637C95.9452 10.7346 94.9503 10.27 93.5936 10.27C93.273 10.27 92.9687 10.307 92.681 10.381C92.4014 10.455 92.1506 10.5537 91.9286 10.677C91.7066 10.8003 91.5175 10.9278 91.3613 11.0593C91.2051 11.1909 91.0612 11.3307 90.9296 11.4787V4.84333H90.128L86.169 5.46V6.607L86.909 7.051V21H90.9296V20.4203C91.6532 20.8068 92.4754 21 93.3963 21ZM91.5833 19.2857C91.4846 19.2857 91.3819 19.2816 91.275 19.2733C91.1681 19.2569 91.053 19.2322 90.9296 19.1993V12.786C91.2421 12.564 91.5504 12.453 91.8546 12.453C92.2575 12.453 92.5864 12.6462 92.8413 13.0327C93.1044 13.4109 93.236 13.9536 93.236 14.6607V16.7573C93.236 18.4429 92.6851 19.2857 91.5833 19.2857Z" fill="white"/>
</svg>
