<?xml version="1.0" encoding="utf-8"?>
<!-- Generator: Adobe Illustrator 23.0.3, SVG Export Plug-In . SVG Version: 6.00 Build 0)  -->
<svg version="1.1" id="Calque_1" xmlns="http://www.w3.org/2000/svg" xmlns:xlink="http://www.w3.org/1999/xlink" x="0px" y="0px"
	 viewBox="0 0 175.2 98.8" style="enable-background:new 0 0 175.2 98.8;" xml:space="preserve">
<style type="text/css">
	.st0{fill:#A592F2;}
	.st1{fill:#42CFCF;}
</style>
<path class="st0" d="M51.5,95.3C47,87.5,43,81.1,39.8,74.4c-0.9-1.8,0.1-5.2,1.2-7.3c10.6-18.8,21.3-37.6,32.5-56
	c1.6-2.7,5.8-4.9,9.1-5.3c6.2-0.8,12.6-0.2,20.7-0.2C85.9,35.8,69.1,64.8,51.5,95.3z"/>
<path class="st0" d="M92.2,95.2c-4.4-7.4-8.3-13.5-11.6-20c-0.9-1.9-0.6-5.3,0.5-7.2c10.7-19.1,21.6-38.2,32.9-56.9
	c1.6-2.7,5.8-4.8,9.1-5.2c6.2-0.8,12.5-0.2,20.7-0.2C126.4,36,109.6,65.1,92.2,95.2z"/>
<path class="st0" d="M32.9,60C22.4,41.8,12.5,24.6,2.6,7.4C12.8,9,24.2-0.3,31.5,11.1C48.4,37.5,48.2,37.7,32.9,60z"/>
<path class="st1" d="M138.7,40.5c10.5,18.2,20.4,35.4,30.3,52.6c-10.2-1.6-21.6,7.7-28.9-3.7C123.2,63,123.4,62.8,138.7,40.5z"/>
</svg>
