<svg width="29" height="29" viewBox="0 0 29 29" fill="none" xmlns="http://www.w3.org/2000/svg">
<path fill-rule="evenodd" clip-rule="evenodd" d="M0 12C0 6.34315 0 3.51472 1.75736 1.75736C3.51472 0 6.34315 0 12 0H16.1818C21.8387 0 24.6671 0 26.4245 1.75736C28.1818 3.51472 28.1818 6.34315 28.1818 12V16.1818C28.1818 21.8387 28.1818 24.6671 26.4245 26.4245C24.6671 28.1818 21.8387 28.1818 16.1818 28.1818H12C6.34315 28.1818 3.51472 28.1818 1.75736 26.4245C0 24.6671 0 21.8387 0 16.1818V12ZM14.8736 6.01675C15.4071 6.15969 15.7237 6.70803 15.5807 7.2415L11.5325 22.3499C11.3895 22.8833 10.8412 23.1999 10.3077 23.057L7.75096 22.3719C7.21749 22.229 6.90091 21.6806 7.04385 21.1471L11.0921 6.03878C11.2351 5.50531 11.7834 5.18873 12.3169 5.33167L14.8736 6.01675ZM8.88943 10.034C8.93487 10.2035 8.93487 10.382 8.88943 10.5516L7.51927 15.6651C7.25447 16.6534 5.85222 16.6534 5.58742 15.6651L3.38767 7.45554C3.24473 6.92208 3.56131 6.37374 4.09478 6.2308L6.65154 5.54571C7.185 5.40277 7.73334 5.71936 7.87628 6.25282L8.88943 10.034ZM13.7472 22.3719C13.2137 22.2289 12.8971 21.6806 13.0401 21.1471L17.0883 6.03875C17.2313 5.50529 17.7796 5.18871 18.3131 5.33165L20.8699 6.01673C21.4033 6.15967 21.7199 6.70801 21.577 7.24148L17.5287 22.3498C17.3857 22.8833 16.8374 23.1999 16.3039 23.057L13.7472 22.3719ZM19.7321 18.3554C19.6867 18.1859 19.6867 18.0073 19.7321 17.8378L21.1023 12.7243C21.3671 11.736 22.7694 11.736 23.0341 12.7243L25.2337 20.9332C25.3767 21.4666 25.0601 22.015 24.5266 22.1579L21.9698 22.843C21.4364 22.9859 20.888 22.6693 20.7451 22.1359L19.7321 18.3554Z" fill="#BD93F9"/>
</svg>
